# xmcd
#
# Track frame offsets:
#	150
#	4147
#	21050
#	39219
#	58093
#	75044
#	93718
#	110554
#	131821
#	146213
#	164202
#	193239
#	208482
#	228844
#	245841
#
# Disc length: 3537 seconds
# Revision: 0
# Processed by: cddbd v1.5.2PL0 Copyright (c) Steve Scherf et al.
# Submitted via: dBpowerAMP V12.0
#
DISCID=da0dcf0f
DTITLE=Pretty Ricky - Pretty Ricky
DYEAR=2009
DGENRE=Hip Hop
TTITLE0=Intro
TTITLE1=Say A Command
TTITLE2=Mr. Goodbar
TTITLE3=Tipsy (In Dis Club)
TTITLE4=Smash
TTITLE5=Me And My Guitar
TTITLE6=Sticky
TTITLE7=T.R.U.T.H.
TTITLE8=Like My Style
TTITLE9=Dancing
TTITLE10=Black
TTITLE11=Discovery Channel (Wild Girl)
TTITLE12=Prince Charming
TTITLE13=Downtown
TTITLE14=Insecure
EXTD=
EXTT0=
EXTT1=
EXTT2=
EXTT3=
EXTT4=
EXTT5=
EXTT6=
EXTT7=
EXTT8=
EXTT9=
EXTT10=
EXTT11=
EXTT12=
EXTT13=
EXTT14=
PLAYORDER=
